/* XPM */
static char *_847992e700f436c9541224dd547040dTaWQWmPOWlYJJ7Y6[] = {
/* columns rows colors chars-per-pixel */
"64 64 21 1 ",
"  c gray48",
". c #838383",
"X c #868686",
"o c #8B8B8B",
"O c gray56",
"+ c #939393",
"@ c gray59",
"# c #9B9B9B",
"$ c gray62",
"% c gray64",
"& c #A7A7A7",
"* c #AAAAAA",
"= c #AFAFAF",
"- c #B2B2B2",
"; c #B4B4B4",
": c gray72",
"> c #BCBCBC",
", c #C0C0C0",
"< c gray77",
"1 c #CBCBCB",
"2 c #CECECE",
/* pixels */
"=&*&-*==::=#oOO%*;==-:;-#Xo$=-;&&$=&$+&;:-=;;*$$*=$O#==%=,1:%*$#",
">;=*==**-;*$+@@=>>*&;,:%+X+%-;:-=%&&#$&-;---*%$#%%$%%=%@#*;=%%$$",
">:;=**&=;:=&&*->:*#$-,:*#+%*=*-;-$%=-:=&**-*&@@@$&*-*&@Oo#&*%%%$",
"-::-=%&&*=%&%-;;=&$;:>=$$+$@@+-:>&%&->;===;*%@$$&*;;=#@O+#$$@&**",
"&=>-*%=-;-%%*==%@@@*%%%**&&$+o*;,--:1,-*;-=$%$&&==:&&$*%&**&$**&",
"&&;-=%&=:-%$$$##%*==%+#%=*#@+#-*:->:>;==>;*#O#%=;;;*-*-==$@$$*-:",
"&%*&=&-:,;*%%@$%;::=$@*--*$#@#*%*&;>:;&=;:=#X+#*;::---::-%*=;&=-",
"%$%%**-=>=-&%#**:>2<-&*-*$##$#&#$#*-===;:::&@#%;>,:;:>:;&@#&*#&:",
"&*=&*=:=*%*&&$-;><11>;;-*&&$@O$&%&&*&*;;:=;=**=:>;-*--**%$*%%O%=",
"*-;*==;&*$*$*%=*;;,<<,:;=*%#@@%==-=***:=-%;-::---**&--%*&=&&*%&=",
">>:&*&-*&@$&-=-;=&&->:;-:;=#@+#*=;*&*;>&@O$&--%#$%&-;-#&==&$*&&&",
">,:&$$*&%@#=;>;=$@&-:=*&-*=$$$$&==%%&-=&+@$=-*#@$%%*&%@*::=-==%$",
"<,:&%$&&%#@=-:-*@X#$$#==*%-$%+$$==%$$=*&@#*-*****&*--=$&;>,:=&$%",
"->>-&&&&$@@&;-*@%#$#$**=%#%@%@%#*&$#@$#%&*--&&*:,-*%**&-;>>,:;==",
";-*-;;-=*$#$=&%$*%#@#*=:-*&$&&*%=&=&&%$$&&=&$#$&*=;=>-:-:;:=;;=&",
";;*>;;-&%@#%-*#@&:%**>**=-*$===#%#**;&$*--&&%&#%%*;=>&:-;&$%&---",
"1:=-:::==%&&*=%*%>&*$**=>>;&=-:&%+*;<;=--;*=#$+#+*:;;&-=-%@%%-%$",
"1<:-;:-=&&&&&***&;&&%--&-;;$%%-%&$=><>--=-;-#@#&$*-:;=*=%&@=*:*%",
"<>>*=**---*&%&;:=&$@+$&*-:-%#$=*=*;,,:==**=*###=%>:;*-;-$$@-><=#",
">:>==$$%*-*%$#--*@#$%*&&&&&@$%==;><>=&%-===*=*=;*>>>=-==%*%-;,=%",
"*=;=*$%%&&=%&#*==%$$%%$*%%#$#$*;:;;=%**;=-**=:;;-11;*%-=%$#**-&#",
"*-;-=&&%%%*%;&=&*%%&&=$%#%#$$=-:-::;*&%*&--;*=%&&:,:-&&***$=&=#O",
"#*=-*=*&%&==:-===-&&%&$&#&@%$*&*&-=;-;*&%=-:--&%&=-&&&&==*$$$%+X",
"==---=*&$#=:1>-&%%$$#%&=%%#%&-*&&:;;**$%#*-;*&$##%%%&-**=-*%%&#+",
"*$#$=--%$*>1<-*&*&%#$%=;*%@@$$$$*-=&*=-===;-==;%%$&%$-**&--%$$$+",
"<=$#&***=;,<,=*$&@$#&&;-=&&%%%=*-;:***-=*%$%&&&%&&=*&*%#@*;--;:-",
";*#@$&**->>-=%$$&&=&*%*%***$%*;--==%**--*%@#$$%%=---=*$#$=&*=:>:",
"::=-**&*=-&%%*%%%**=&%$$*=;-&%**&***&&#%@$+$$@@$*:;:=*%%%&%&=;:>",
"&***&#**:*##&*&*=;-:=&#$->,-*$%%$$$&==&%%=**#++#%*;;;-=*%&$&*-;;",
"&&*&*$--<-&%*==-:;*=**%$**;**$$#@$%&*=--=--=$#$*&&*-=-=;*=*&==-&",
"*&=#%@=*,:=*=;==;=*&--*%$*=**&*%$@%=::;;-;=*%&&&##$%***-;:-&--=#",
">:>*-&*#=--*&;-=-==%&%$#o@#*%&=&=#&&:,>,:>-*&**&$*&*%$&&:=*$&&$+",
",>;=&#O O#&##=-**==&$%$*#**;*&=&-*==:<>>--*=*&**-;=*&$%+%$%%&=*$",
",>-&%$+o$&*@%&&%&;==$#$&*&&-:-=#*=-*-:>::;--=$#%;>:=%#$+@+$#$&&%",
";=$++@OO#%%#&**$#;-=$&=*=&&*==&#%-;&$$--;=*--&%&-=*%&&&+o+**;*;-",
"-*%##$%*;;-=-=$++*--&&*%=*&%%=%%$%%$&*;:;=$**-=&&&&%%*&#+@*#&@$#",
"%&%$+@%&&*=:--&%#$%$#%=&%$$#@$#%&**%&*:>=%+#%;;;==*==:*$O#%$$+$$",
"$*;=%%=-*=-:*%#&$%%%%&*$$@$#&&%%***&=->;%@@#&&=;:>--&&$$#&$#OOoO",
"&-;%$%;;==*=*==-*$@%*-;$#X%#*##+#%*%$#=*&*-=*%%==:;>:==*%&%&@#+@",
";>>=---*=*%##%%=%%$=:;*O@@*&;;=@##$$#%--**=---=-*=-=;*>-;=*&%%%&",
"==*&*=-==*%##$%&*%$&=;=##%**&==%$#%*&***&:-;*:--****;;::;;*&$&*=",
"&*=;-&*-=&$#@@@@%%%$&-*&#%#&&==**&=;:;=-->-;=;-**$*$&%%*=;-=*&**",
"##%=*&=:,=%#@+@+&%%#&>--%&$%%$&**&->:=&*-<,>*$#@$+%%=%%*%=*=&%&*",
"#%=;-=->:*#+#$&%&%%&*-**&**==%%$%#&---*;:,>=&$%%$+%***;:&##&=*==",
";*&=-;-:;;&&$&==*%$&%=$%%-=:;=%@#%=;-;-=&===*%&*&$%*-:>;$@#%*-:>",
"*$&=-=%=*;=-&*=*%$%--;*&$**;;;%@+&*:>1>-%%%&*&>>:=*=*;-*@#%*=;>1",
":&$%&%$&*>>>=*=**%&&--*#+%*=*;&%+-->>>>=****&=><<:==&*$@@%:::=;,",
"&$$$@#%=;,1<====$@&=,;-#+%-*$&*=$-=:-;;==&***=:,,:-=*&$@#%;*-%:,",
";=%#+$=-;><1,,::=$**-%%#@*;:&%&=*=&-=;:>:*%$&-;;:=&*%%@$%&-*:=:;",
"=-&&@#%=:;;>>,:;%O%=:*;=*->;*@$&;=%$&;-=%$$$;;>;=&%=*%@%%==*-*;=",
"$%#&*;===*%--:>:-%-;=%*=;><;%+#&=&&&=;>-%%&%*;>,==*:=%#*=::::;;*",
"$%#&%=->;;&-&=:,;&-=-&;-:>,&@#*--=-%**=$+%--;;>,-;;;*$&&*=-*-=;-",
"+$&=&*&;=;;:=*-><::;-***;;-&#==-%***&=:-*=>>-*=-===&%$%$&=;&-;<>",
"&*-=#@$*&*;>=$$-<,;&=*-=;&&*-<;>=:;-*=*&&->::=:;;**##+%+#%&&=-:;",
"$*-=%&$##%;:;%%%,,;$%&-$*%&&*:*-*>-:*=%*:>>-*&&=--=$$$&%%==;=-*-",
"&%%#%==$#$;>:&#%-;&#$*;*%$*;--*;-;*=&=#&->>==*=*=-=*$&*%#%*-=-*-",
"#%%$%*=#&*:;>--=;;=*&=;&@@%&&%=*-&@#$=#&*---:=%##&&&%-=&%=-*=;:>",
"%$$%*--***=;-=*;-*&*&&*&$$*:;=-*-$#@#%@#%=;->:=%$&%&&=$+#-;-=;;;",
";*$*=-&*%**;**->:*%%$@%$&*--=*-*-*=*%$##%*;:<:=%%*$%*--&&--=&*%%",
";*%===&=%$#*%=;:*$#$%%=&==>;;&&&&-=&##&*--;:>:-*&*##%:>=#**:*=%#",
"&***$&&-%%#&$=;>**====::-=-&&$%%&-*%%=:===:>>;=&%*##O*-=#$%*&*&&",
"O#%$#&==*&%*%-*-&->>-=>:=%***&$$%*##%->=-&****%%%*%$O@$*#%%-=;;>",
"$#%$%=**%=--***---;;*%*=&&&**=-*=&&%=;;*=*;*&#O$*:=-@+#=*@&-;*&-",
"*###==$@#;:;*%*==&*=*$#$$$&=-;:-;&&&*;-;-=:*&+.#&,;:&%->-@=,,&$="
};
